<?xml version="1.0" encoding="UTF-8" standalone="no"?>
<!DOCTYPE svg PUBLIC "-//W3C//DTD SVG 1.1//EN" "http://www.w3.org/Graphics/SVG/1.1/DTD/svg11.dtd">
<svg width="100%" height="100%" viewBox="0 0 155 236" version="1.1" xmlns="http://www.w3.org/2000/svg" xmlns:xlink="http://www.w3.org/1999/xlink" xml:space="preserve" xmlns:serif="http://www.serif.com/" style="fill-rule:evenodd;clip-rule:evenodd;stroke-linejoin:round;stroke-miterlimit:2;">
    <g transform="matrix(1,0,0,1,-943.608,-1550.44)">
        <g id="Layer-1" serif:id="Layer 1" transform="matrix(1.59635,0,0,1.59635,943.608,1550.44)">
            <g>
                <g transform="matrix(1,0,0,1,53.2271,125.737)">
                    <path d="M0,-99.075C-1.933,-99.4 -3.188,-99.666 -4.456,-99.814C-8.72,-100.312 -9.441,-99.36 -9.421,-95.511C-9.374,-86.374 -9.357,-95.589 -9.593,-86.633C-10.301,-59.762 -9.213,-32.873 -8.992,-5.994C-8.978,-4.256 -9.794,-2.149 -7.502,-0.935C-7.293,-0.825 -7.735,0.514 -7.886,1.346C-6.983,1.941 -5.993,2.593 -4.934,3.291C-3.762,2.572 -2.61,1.866 -1.847,1.398C-2.002,0.302 -2.351,-1.001 -2.172,-1.079C-0.101,-1.972 -0.795,-3.768 -0.746,-5.234C-0.641,-8.329 -0.691,-11.429 -0.676,-14.527C-0.556,-38.91 -0.426,-63.293 -0.338,-87.676C-0.331,-89.5 -0.397,-91.103 -0.345,-92.921C-0.29,-94.848 -0.219,-94.842 0,-99.075M18.308,-93.432C17.138,-93.432 16.381,-93.246 15.782,-93.476C14.923,-93.805 13.705,-94.298 13.509,-94.974C13.261,-95.827 13.574,-97.222 14.185,-97.885C18.077,-102.108 27.512,-102.093 31.454,-97.885C32.038,-97.261 32.397,-96.063 32.253,-95.237C32.137,-94.574 31.189,-93.764 30.456,-93.553C27.241,-92.625 26.891,-92.54 26.876,-88.503C26.867,-85.849 26.817,-84.07 26.839,-81.911C27.024,-63.714 27.572,-45.799 27.684,-27.601C27.73,-20.102 27.685,-12.601 27.843,-5.105C27.871,-3.813 28.795,-2.562 29.141,-1.249C29.33,-0.531 29.175,0.278 29.175,1.617C28.895,1.215 28.988,1.386 29.116,1.527C30.005,2.5 30.901,3.466 31.794,4.435C30.705,5.351 29.749,6.765 28.504,7.096C23.359,8.461 18.234,8.638 13.671,5.332C7.829,8.665 1.997,9.091 -3.996,5.852C-4.507,5.576 -5.475,5.808 -6.084,6.105C-11.929,8.961 -17.592,8.575 -23.435,5.368C-27.557,8.522 -32.516,8.443 -37.484,7.295C-38.946,6.957 -40.153,5.516 -41.476,4.58C-40.603,3.392 -39.729,2.204 -38.644,0.728C-38.699,0.557 -39.276,-0.768 -39.132,-0.852C-36.685,-2.276 -37.67,-4.608 -37.652,-6.53C-37.406,-31.725 -37.158,-56.921 -37.167,-82.117C-37.168,-85.075 -37.148,-88.023 -36.985,-90.973C-36.894,-92.628 -37.27,-93.56 -39.291,-93.55C-40.211,-93.545 -41.698,-94.495 -41.906,-95.282C-42.129,-96.127 -41.421,-97.598 -40.656,-98.263C-36.348,-102.008 -29.496,-102.164 -24.823,-98.572C-23.889,-97.854 -23.576,-96.33 -22.976,-95.178C-24.119,-94.612 -25.251,-94.021 -26.412,-93.494C-26.752,-93.339 -27.174,-93.362 -27.828,-93.262C-27.903,-92.269 -28.054,-91.299 -28.038,-90.333C-27.799,-76.368 -27.906,-62.402 -27.8,-48.437C-27.694,-34.339 -27.623,-20.24 -27.472,-6.143C-27.454,-4.378 -28.243,-2.31 -26.068,-1.004C-25.842,-0.868 -26.309,0.421 -26.488,1.35C-25.634,1.873 -24.544,2.542 -23.301,3.304C-22.303,2.69 -21.224,2.028 -20.146,1.365C-20.322,1.28 -20.498,1.194 -20.675,1.109C-20.371,0.195 -20.046,-0.712 -19.769,-1.634C-19.522,-2.457 -19.144,-3.296 -19.137,-4.13C-18.893,-32.226 -18.569,-60.323 -18.656,-88.418C-18.665,-91.265 -18.48,-94.104 -18.455,-96.946C-18.44,-98.569 -18.641,-99.575 -20.737,-99.489C-21.648,-99.452 -23.273,-100.471 -23.381,-101.188C-23.53,-102.187 -22.86,-103.768 -22.018,-104.38C-17.286,-107.823 -12.183,-108.166 -7.147,-105.125C-5.447,-104.098 -4.363,-104.032 -2.642,-105.086C2.332,-108.129 8.309,-107.748 12.487,-104.267C13.203,-103.67 13.772,-102.428 13.719,-101.525C13.676,-100.809 12.525,-99.53 11.955,-99.577C8.453,-99.87 8.752,-97.638 8.819,-95.38C8.894,-92.887 8.856,-90.391 8.871,-87.896C9.044,-60.2 9.2,-32.503 9.447,-4.807C9.458,-3.605 10.429,-2.439 10.713,-1.201C10.884,-0.457 10.59,0.392 10.48,1.427C11.21,1.874 12.303,2.544 13.548,3.308C14.545,2.699 15.629,2.038 16.002,1.811C16.498,0.22 16.815,-0.7 17.068,-1.637C17.293,-2.469 17.601,-3.319 17.609,-4.164C17.862,-30.059 18.087,-55.955 18.304,-81.851C18.335,-85.596 18.308,-89.342 18.308,-93.432" style="fill:url(#_Linear1);fill-rule:nonzero;"/>
                </g>
                <g transform="matrix(1,0,0,1,0,5.4862)">
                    <path d="M0,14.369C4.969,11.715 9.194,9.365 13.528,7.242C14.202,6.912 15.4,7.554 16.321,7.853C17.896,8.364 19.444,8.959 21.028,9.527C22.487,6.54 20.917,5.542 18.803,4.866C16.975,4.282 15.137,3.731 13.32,2.709C23.758,-1.649 34.5,-4.703 45.604,-5.389C58.757,-6.201 71.091,-1.783 83.417,2.065C83.451,2.394 83.485,2.722 83.519,3.051C81.457,3.734 79.414,4.483 77.327,5.081C74.982,5.754 74.771,7.166 75.698,9.366C76.62,9.126 77.579,9.098 78.277,8.657C81.615,6.547 84.578,7.336 87.656,9.35C90.297,11.079 93.17,12.453 96.72,14.414C92.518,16.632 89.111,18.624 85.517,20.189C84.644,20.57 83.077,19.711 81.969,19.148C65.169,10.62 47.541,9.361 29.482,13.64C24.104,14.915 19.082,17.656 13.828,19.531C12.605,19.967 10.908,20.041 9.758,19.534C6.69,18.181 3.801,16.421 0,14.369" style="fill:url(#_Linear2);fill-rule:nonzero;"/>
                </g>
                <g transform="matrix(1,0,0,1,48.275,141.902)">
                    <path d="M0,5.304C-5.492,5.303 -10.985,5.253 -16.476,5.33C-18.445,5.357 -19.366,4.812 -19.383,2.632C-19.401,0.416 -18.436,-0.037 -16.487,-0.028C-5.403,0.026 5.682,0.026 16.766,-0.041C18.843,-0.053 19.857,0.434 19.832,2.789C19.808,5.137 18.58,5.336 16.776,5.321C11.184,5.276 5.592,5.305 0,5.304" style="fill:url(#_Linear3);fill-rule:nonzero;"/>
                </g>
                <g transform="matrix(1,0,0,1,77.7137,141.963)">
                    <path d="M0,5.237C-1.793,5.24 -3.591,5.16 -5.378,5.261C-7.353,5.373 -8.271,4.742 -8.278,2.578C-8.286,0.397 -7.346,-0.136 -5.382,-0.088C-1.4,0.01 2.588,0.007 6.57,-0.076C8.665,-0.121 9.005,0.975 9.025,2.736C9.046,4.534 8.354,5.291 6.574,5.247C4.384,5.193 2.191,5.234 0,5.237" style="fill:url(#_Linear4);fill-rule:nonzero;"/>
                </g>
                <g transform="matrix(1,0,0,1,39.0461,139.995)">
                    <path d="M0,-5.178C2.088,-5.176 4.179,-5.093 6.262,-5.2C8.131,-5.296 8.674,-4.447 8.666,-2.713C8.658,-0.945 8.267,0.118 6.183,0.07C2.109,-0.024 -1.969,-0.014 -6.044,0.065C-8.18,0.106 -8.393,-1.097 -8.443,-2.802C-8.498,-4.664 -7.714,-5.273 -5.964,-5.199C-3.979,-5.116 -1.988,-5.18 0,-5.178" style="fill:url(#_Linear5);fill-rule:nonzero;"/>
                </g>
                <g transform="matrix(1,0,0,1,57.9245,139.956)">
                    <path d="M0,-5.142C1.898,-5.143 3.801,-5.06 5.693,-5.166C7.649,-5.277 8.356,-4.476 8.321,-2.541C8.286,-0.614 7.517,0.135 5.603,0.097C1.608,0.019 -2.391,0.009 -6.385,0.093C-8.375,0.134 -8.985,-0.773 -9.023,-2.62C-9.065,-4.624 -8.163,-5.25 -6.293,-5.163C-4.2,-5.066 -2.098,-5.141 0,-5.142" style="fill:url(#_Linear6);fill-rule:nonzero;"/>
                </g>
                <g transform="matrix(1,0,0,1,18.4717,141.974)">
                    <path d="M0,5.236C-1.898,5.235 -3.798,5.175 -5.693,5.252C-7.581,5.328 -8.362,4.627 -8.348,2.636C-8.336,0.77 -7.855,-0.124 -5.832,-0.08C-1.839,0.007 2.159,-0.007 6.153,-0.097C8.062,-0.14 8.811,0.548 8.836,2.507C8.864,4.621 8.037,5.376 5.992,5.261C4,5.15 1.998,5.237 0,5.236" style="fill:url(#_Linear7);fill-rule:nonzero;"/>
                </g>
                <g transform="matrix(1,0,0,1,76.1174,134.926)">
                    <path d="M0,5.11C-1.2,5.111 -2.407,5.026 -3.598,5.13C-5.723,5.315 -6.677,4.598 -6.68,2.29C-6.682,-0.144 -5.3,-0.165 -3.562,-0.128C-0.963,-0.072 1.641,-0.034 4.237,-0.131C6.198,-0.205 6.549,0.799 6.527,2.468C6.506,4.123 6.125,5.201 4.199,5.12C2.802,5.062 1.4,5.109 0,5.11" style="fill:url(#_Linear8);fill-rule:nonzero;"/>
                </g>
                <g transform="matrix(1,0,0,1,20.7057,134.838)">
                    <path d="M0,5.197C-1.096,5.197 -2.195,5.144 -3.288,5.209C-5.172,5.32 -6.515,5.157 -6.556,2.621C-6.596,0.115 -5.37,-0.123 -3.417,-0.051C-0.83,0.046 1.765,0.033 4.353,-0.044C6.101,-0.096 6.623,0.765 6.567,2.335C6.515,3.785 6.581,5.24 4.484,5.194C2.99,5.161 1.495,5.188 0,5.188L0,5.197" style="fill:url(#_Linear9);fill-rule:nonzero;"/>
                </g>
            </g>
        </g>
    </g>
    <defs>
        <linearGradient id="_Linear1" x1="0" y1="0" x2="1" y2="0" gradientUnits="userSpaceOnUse" gradientTransform="matrix(1.02207e-14,166.917,-166.917,1.02207e-14,-4.8671,-112.852)"><stop offset="0" style="stop-color:rgb(100,74,243);stop-opacity:1"/><stop offset="1" style="stop-color:rgb(51,182,232);stop-opacity:1"/></linearGradient>
        <linearGradient id="_Linear2" x1="0" y1="0" x2="1" y2="0" gradientUnits="userSpaceOnUse" gradientTransform="matrix(1.02207e-14,166.917,-166.917,1.02207e-14,48.36,7.39845)"><stop offset="0" style="stop-color:rgb(100,74,243);stop-opacity:1"/><stop offset="1" style="stop-color:rgb(51,182,232);stop-opacity:1"/></linearGradient>
        <linearGradient id="_Linear3" x1="0" y1="0" x2="1" y2="0" gradientUnits="userSpaceOnUse" gradientTransform="matrix(1.02207e-14,166.917,-166.917,1.02207e-14,0.085,-129.018)"><stop offset="0" style="stop-color:rgb(100,74,243);stop-opacity:1"/><stop offset="1" style="stop-color:rgb(51,182,232);stop-opacity:1"/></linearGradient>
        <linearGradient id="_Linear4" x1="0" y1="0" x2="1" y2="0" gradientUnits="userSpaceOnUse" gradientTransform="matrix(1.02207e-14,166.917,-166.917,1.02207e-14,-29.3537,-129.079)"><stop offset="0" style="stop-color:rgb(100,74,243);stop-opacity:1"/><stop offset="1" style="stop-color:rgb(51,182,232);stop-opacity:1"/></linearGradient>
        <linearGradient id="_Linear5" x1="0" y1="0" x2="1" y2="0" gradientUnits="userSpaceOnUse" gradientTransform="matrix(1.02207e-14,166.917,-166.917,1.02207e-14,9.3139,-127.11)"><stop offset="0" style="stop-color:rgb(100,74,243);stop-opacity:1"/><stop offset="1" style="stop-color:rgb(51,182,232);stop-opacity:1"/></linearGradient>
        <linearGradient id="_Linear6" x1="0" y1="0" x2="1" y2="0" gradientUnits="userSpaceOnUse" gradientTransform="matrix(1.02207e-14,166.917,-166.917,1.02207e-14,-9.5645,-127.071)"><stop offset="0" style="stop-color:rgb(100,74,243);stop-opacity:1"/><stop offset="1" style="stop-color:rgb(51,182,232);stop-opacity:1"/></linearGradient>
        <linearGradient id="_Linear7" x1="0" y1="0" x2="1" y2="0" gradientUnits="userSpaceOnUse" gradientTransform="matrix(1.02207e-14,166.917,-166.917,1.02207e-14,29.8883,-129.09)"><stop offset="0" style="stop-color:rgb(100,74,243);stop-opacity:1"/><stop offset="1" style="stop-color:rgb(51,182,232);stop-opacity:1"/></linearGradient>
        <linearGradient id="_Linear8" x1="0" y1="0" x2="1" y2="0" gradientUnits="userSpaceOnUse" gradientTransform="matrix(1.02207e-14,166.917,-166.917,1.02207e-14,-27.7574,-122.042)"><stop offset="0" style="stop-color:rgb(100,74,243);stop-opacity:1"/><stop offset="1" style="stop-color:rgb(51,182,232);stop-opacity:1"/></linearGradient>
        <linearGradient id="_Linear9" x1="0" y1="0" x2="1" y2="0" gradientUnits="userSpaceOnUse" gradientTransform="matrix(1.02207e-14,166.917,-166.917,1.02207e-14,27.6543,-121.953)"><stop offset="0" style="stop-color:rgb(100,74,243);stop-opacity:1"/><stop offset="1" style="stop-color:rgb(51,182,232);stop-opacity:1"/></linearGradient>
    </defs>
</svg>
