<?xml version="1.0" encoding="UTF-8"?>
<svg id="a" data-name="Layer 1" xmlns="http://www.w3.org/2000/svg" width="477.13" height="512" viewBox="0 0 477.13 512">
  <path d="M240.04,0v1c-1.09.91-1.01,2.11-1.07,3.38-.99,20.21.89,41.32.07,61.62-3.67.19-7.03,4.46-9.51,6.99-51.3,52.15-56.53,109.66-49.69,180.31-12.43,15.4-27.13,29.05-39.76,44.23-2.14,2.58-6.06,6.73-6.07,9.96,7.57,24.13,11.67,50.65,19.54,74.52.61,1.85,1.23,5.17,3.16,5.84,2.25.77,21.25.44,22.92-.76l24.63-45.87c11.58-.41,23.21-.19,34.8-.21v16c-7.64.03-15.41-.44-23.01.49l-7.91,16.01,30.93,70.5c-.56,22.63,1.19,45.52-1,68h-1c-66.21-38.24-134.09-73.95-200.5-112L0,86.49,237.04,0h3ZM175.03,138c-1.29-1.46-30.38,18.09-33.31,20.18-33.65,24-89.44,76.86-74.41,123.04,6.65,20.44,31.79,35.28,52.28,37.74,2.23.27,1.86-3.03,1.5-4.35-.22-.81-13.45-4.08-16.04-5.13-26.86-10.93-37.9-33.28-30.51-61.48,10.34-39.44,51.89-73.82,84.58-95.42,3.07-2.03,19.98-9.99,15.91-14.58Z" style="fill: #0073dc;"/>
  <path d="M240.04,1l235.34,83.16,1.2.79.56,2.53-36.29,313.32-200.81,111.19h-2c2.19-22.48.44-45.37,1-68,1.62-.67,2.2-2.18,2.88-3.62,10.34-21.96,19.41-44.65,29.18-66.88,0-1.67-7.17-15.48-8.04-16.01-1.9-1.15-20.05-.5-24.01-.49v-16c11.93-.02,23.92-.13,35.84.16l24.58,45.91c2.08,1.51,22.45,2.36,24.6-1.56l20.94-78.97c-.16-2.36-4.66-7.43-6.45-9.56-12.54-14.96-27.16-28.34-39.31-43.69,7.54-70.54-.8-131.26-52.18-182.83-2.38-2.39-4.29-4.67-8.03-4.47.82-20.3-1.06-41.4-.07-61.62.06-1.27-.02-2.47,1.07-3.38ZM319.04,262c1.29,1.37,22.21-15.13,24.47-17.02,26.75-22.43,61.4-61.06,58.51-98.46-.25-3.27-2.39-8.18-2.01-10.97.3-2.22,4.11-4.88,4.8-8.28,3.07-15.08-6.56-26.7-22.21-24.21-2.99.48-6.68,3.9-8.9,3.71-1.57-.13-12.66-5.45-16.45-6.49-21.01-5.79-42.71-4.71-64.22-3.28-.05,1.86-.45,4.17,1.64,4.85,4.59,1.49,20.28-1.12,26.9-.9,3.56.12,9.2.73,12.84,1.17,12.38,1.48,24.19,5.12,35.6,9.95-5.82,12.62,2.54,27.47,16.53,28.02,1.94.08,5.61-1.31,6.53-.69,1.31.9,2.69,9.21,2.84,11.22,2.33,31.45-26.4,66.49-48.34,86.4-7.91,7.18-20.13,14.31-26.87,21.13-.88.89-2.86,2.55-1.65,3.84Z" style="fill: #0068c2;"/>
  <path d="M239.04,357c3.97-.01,22.12-.67,24.01.49.88.53,8.05,14.35,8.04,16.01-9.77,22.23-18.84,44.91-29.18,66.88-.68,1.44-1.26,2.95-2.88,3.62l-30.93-70.5,7.91-16.01c7.6-.93,15.38-.46,23.01-.49ZM238.04,402c-.04,1.21.2,4.9,1.99,4.99l14-33.5c-4.87-.85-10.05-.54-14.99-.49-4.32.05-8.68-.04-13,0l12,28.99Z" style="fill: #fafcfd;"/>
  <g>
    <path d="M239.04,66c3.74-.19,5.64,2.08,8.03,4.47,51.38,51.56,59.72,112.29,52.18,182.83,12.15,15.34,26.77,28.73,39.31,43.69,1.79,2.13,6.29,7.2,6.45,9.56l-20.94,78.97c-2.15,3.91-22.52,3.07-24.6,1.56l-24.58-45.91c-11.93-.29-23.91-.18-35.84-.16s-23.22-.2-34.8.21l-24.63,45.87c-1.66,1.2-20.66,1.53-22.92.76-1.94-.66-2.55-3.98-3.16-5.84-7.87-23.87-11.97-50.39-19.54-74.52,0-3.23,3.92-7.39,6.07-9.96,12.63-15.18,27.34-28.83,39.76-44.23-6.84-70.65-1.6-128.16,49.69-180.31,2.49-2.53,5.84-6.8,9.51-6.99ZM239.03,160.15c6.11.17,11.83-2.99,14.93-8.25s3.1-11.8,0-17.06-8.83-8.42-14.93-8.25c-9.08.26-16.31,7.7-16.31,16.78s7.23,16.52,16.32,16.78Z" style="fill: #fdfdfe;"/>
    <path d="M175.03,138c4.07,4.59-12.84,12.55-15.91,14.58-32.68,21.61-74.24,55.98-84.58,95.42-7.39,28.19,3.65,50.54,30.51,61.48,2.6,1.06,15.82,4.32,16.04,5.13.36,1.31.73,4.61-1.5,4.35-20.49-2.46-45.63-17.29-52.28-37.74-15.02-46.18,40.76-99.04,74.41-123.04,2.93-2.09,32.01-21.64,33.31-20.18Z" style="fill: #f2f7fc;"/>
    <path d="M319.04,262c-1.21-1.29.77-2.95,1.65-3.84,6.75-6.82,18.97-13.95,26.87-21.13,21.94-19.91,50.67-54.95,48.34-86.4-.15-2-1.52-10.31-2.84-11.22-.91-.63-4.59.76-6.53.69-13.99-.55-22.36-15.41-16.53-28.02-11.4-4.83-23.22-8.47-35.6-9.95-3.64-.43-9.28-1.05-12.84-1.17-6.62-.22-22.31,2.39-26.9.9-2.09-.68-1.69-2.99-1.64-4.85,21.51-1.43,43.21-2.51,64.22,3.28,3.79,1.04,14.88,6.36,16.45,6.49,2.21.19,5.91-3.24,8.9-3.71,15.65-2.49,25.28,9.13,22.21,24.21-.69,3.4-4.5,6.06-4.8,8.28-.38,2.79,1.76,7.7,2.01,10.97,2.89,37.4-31.76,76.03-58.51,98.46-2.26,1.9-23.18,18.39-24.47,17.02Z" style="fill: #f5f9fc;"/>
    <g>
      <path d="M239.04,160.15v-33.56c6.1-.17,11.82,2.98,14.93,8.25s3.11,11.8,0,17.06c-3.1,5.26-8.82,8.42-14.93,8.25Z" style="fill: #0068c2;"/>
      <path d="M239.04,126.59v33.56c-9.08-.25-16.31-7.69-16.31-16.78s7.23-16.53,16.31-16.78Z" style="fill: #0474dc;"/>
    </g>
  </g>
  <path d="M239.04,373c4.94-.05,10.11-.37,14.99.49l-14,33.5c-1.78-.1-2.03-3.78-1.99-4.99,0-.14,1.02-1.13,1.04-2.42.11-8.86-.16-17.73-.04-26.58Z" style="fill: #0068c2;"/>
  <path d="M239.04,373c-.12,8.84.15,17.72.04,26.58-.02,1.29-1.04,2.28-1.04,2.42l-12-28.99c4.32-.04,8.68.04,13,0Z" style="fill: #0474dc;"/>
</svg>