<?xml version="1.0" encoding="UTF-8"?>
<svg id="Layer_2" data-name="Layer 2" xmlns="http://www.w3.org/2000/svg" xmlns:xlink="http://www.w3.org/1999/xlink" viewBox="0 0 467.33 279.5">
  <defs>
    <style>
      .cls-1 {
        fill: none;
      }

      .cls-2 {
        clip-path: url(#clippath);
      }

      .cls-3 {
        fill: #005276;
      }

      .cls-4 {
        fill: #00b3f5;
      }

      .cls-5 {
        fill: #fff;
      }

      .cls-6 {
        fill: #e2747a;
      }
    </style>
    <clipPath id="clippath">
      <path class="cls-1" d="M467.23,139.65c0,77.04-62.46,139.5-139.5,139.5-36.17,0-69.12-13.77-93.91-36.35-24.79,22.58-57.75,36.35-93.92,36.35C62.86,279.15,.4,216.69,.4,139.65S62.86,.15,139.9,.15c36.17,0,69.13,13.77,93.92,36.35C258.61,13.92,291.56,.15,327.73,.15c77.04,0,139.5,62.46,139.5,139.5Z"/>
    </clipPath>
  </defs>
  <g id="Layer_1-2" data-name="Layer 1">
    <g>
      <path class="cls-6" d="M327.58,.25c77.04,0,139.5,62.46,139.5,139.5s-62.46,139.5-139.5,139.5c-36.17,0-69.13-13.77-93.92-36.35,22.48-20.48,38.25-48.21,43.59-79.49,8.89,18.87,28.08,31.94,50.33,31.94,30.7,0,55.6-24.89,55.6-55.6s-24.9-55.6-55.6-55.6c-22.25,0-41.44,13.07-50.33,31.94-5.34-31.28-21.11-59.01-43.59-79.49C258.45,14.02,291.41,.25,327.58,.25Z"/>
      <path class="cls-3" d="M277.25,116.09c-3.38,7.18-5.27,15.2-5.27,23.66s1.89,16.48,5.27,23.66c-5.34,31.28-21.11,59.01-43.59,79.49-22.48-20.48-38.24-48.21-43.58-79.5,3.38-7.17,5.27-15.19,5.27-23.65s-1.89-16.48-5.27-23.65c5.34-31.29,21.1-59.02,43.58-79.5,22.48,20.48,38.25,48.21,43.59,79.49Z"/>
      <path class="cls-4" d="M233.66,36.6c-22.48,20.48-38.24,48.21-43.58,79.5-8.88-18.88-28.08-31.95-50.33-31.95-30.71,0-55.6,24.89-55.6,55.6s24.89,55.6,55.6,55.6c22.25,0,41.45-13.07,50.33-31.95,5.34,31.29,21.1,59.02,43.58,79.5-24.79,22.58-57.74,36.35-93.91,36.35C62.71,279.25,.25,216.79,.25,139.75S62.71,.25,139.75,.25c36.17,0,69.12,13.77,93.91,36.35Z"/>
    </g>
    <g class="cls-2">
      <g>
        <path class="cls-5" d="M174.91,193.09v84.84h-13.99c-2.91,0-4.77-1.32-5.6-3.95l-1.48-5.93c-1.7,1.65-3.46,3.16-5.27,4.53-1.81,1.37-3.74,2.55-5.8,3.54-2.06,.99-4.28,1.76-6.67,2.3-2.39,.55-4.98,.82-7.78,.82-4.61,0-8.71-.8-12.3-2.39-3.59-1.59-6.6-3.81-9.01-6.67-2.41-2.85-4.25-6.25-5.51-10.2-1.26-3.95-1.89-8.28-1.89-13v-53.9h22.71v53.9c0,4.72,1.08,8.38,3.25,10.99,2.17,2.61,5.39,3.91,9.67,3.91,3.18,0,6.17-.7,8.97-2.1s5.46-3.3,7.98-5.72v-60.98h22.71Z"/>
        <path class="cls-5" d="M214.74,202.96c1.7-1.65,3.47-3.15,5.31-4.53,1.84-1.37,3.79-2.55,5.84-3.54,2.06-.99,4.28-1.75,6.67-2.3,2.39-.55,4.98-.82,7.78-.82,4.61,0,8.69,.8,12.26,2.39,3.57,1.59,6.57,3.81,9.01,6.67,2.44,2.85,4.28,6.25,5.51,10.2,1.23,3.95,1.85,8.28,1.85,13v53.9h-22.63v-53.9c0-4.72-1.1-8.38-3.29-10.99-2.2-2.61-5.43-3.91-9.71-3.91-3.18,0-6.17,.69-8.97,2.06-2.8,1.37-5.46,3.29-7.98,5.76v60.98h-22.71v-84.84h13.99c2.85,0,4.75,1.32,5.68,3.95l1.4,5.93Z"/>
        <path class="cls-5" d="M325.26,191.77c6.36,0,12.15,1.02,17.36,3.04,5.21,2.03,9.68,4.93,13.41,8.68,3.73,3.76,6.61,8.33,8.64,13.7,2.03,5.38,3.05,11.44,3.05,18.19s-1.02,12.83-3.05,18.23c-2.03,5.4-4.91,10-8.64,13.78-3.73,3.79-8.2,6.69-13.41,8.72-5.21,2.03-11,3.05-17.36,3.05s-12.25-1.02-17.49-3.05c-5.24-2.03-9.72-4.94-13.45-8.72-3.73-3.79-6.62-8.38-8.68-13.78-2.06-5.4-3.09-11.48-3.09-18.23s1.03-12.81,3.09-18.19c2.06-5.38,4.95-9.94,8.68-13.7,3.73-3.76,8.21-6.65,13.45-8.68,5.24-2.03,11.07-3.04,17.49-3.04Zm0,70.36c6.47,0,11.27-2.23,14.4-6.71,3.13-4.47,4.69-11.12,4.69-19.96s-1.56-15.4-4.69-19.87c-3.13-4.47-7.93-6.71-14.4-6.71s-11.52,2.24-14.65,6.71c-3.13,4.47-4.69,11.1-4.69,19.87s1.56,15.48,4.69,19.96c3.13,4.47,8.01,6.71,14.65,6.71Z"/>
      </g>
    </g>
  </g>
</svg>